<?xml version="1.0" encoding="UTF-8"?>
<svg width="222px" height="226px" viewBox="0 0 222 226" version="1.1" xmlns="http://www.w3.org/2000/svg" xmlns:xlink="http://www.w3.org/1999/xlink">
    <!-- Generator: Sketch 52.6 (67491) - http://www.bohemiancoding.com/sketch -->
    <title>Group</title>
    <desc>Created with Sketch.</desc>
    <g id="Page-1" stroke="none" stroke-width="1" fill="none" fill-rule="evenodd">
        <g id="Group">
            <rect id="Rectangle" fill="#556270" x="0" y="0" width="46" height="224" rx="23"></rect>
            <rect id="Rectangle" fill="#556270" x="0" y="0" width="213" height="39" rx="19.5"></rect>
            <path d="M115.036867,38 L115.036867,38 C123.116189,38 129.665774,44.5495849 129.665774,52.6289073 C129.665774,55.0447735 129.067464,57.4230356 127.924277,59.5513051 L48.8141297,206.830461 C42.071877,219.382495 28.5730335,226.789927 14.3639394,225.734853 L14.3639394,225.734853 C5.97071506,225.111627 -0.328113379,217.80235 0.295112302,209.409126 C0.452690099,207.286964 1.05297982,205.221329 2.05732377,203.345243 L79.0273442,59.5675025 C86.135899,46.2889306 99.9752591,38 115.036867,38 Z" id="Rectangle" fill="#2A8FBD"></path>
            <path d="M207.360832,38 L207.360832,38 C215.652084,38 222.373472,44.7213877 222.373472,53.0126396 C222.373472,55.2331434 221.880896,57.4259979 220.93124,59.4331827 L154.204581,200.466111 C147.405647,214.836282 132.932416,224 117.035017,224 L117.035017,224 C108.133481,224 100.91736,216.783879 100.91736,207.882343 C100.91736,205.388365 101.49612,202.928409 102.608097,200.696048 L173.077857,59.2237702 C179.555398,46.2197185 192.832794,38 207.360832,38 Z" id="Rectangle" fill="#2A8FBD" transform="translate(161.035942, 131.000000) scale(-1, 1) translate(-161.035942, -131.000000) "></path>
            <path d="M115,196 L188.490501,196 C193.695138,196 198.645004,198.2528 202.063474,202.177377 L208.877303,210 C211.942505,213.519008 211.574622,218.856564 208.055614,221.921766 C206.517163,223.261822 204.545816,224 202.505576,224 L115,224 C107.268014,224 101,217.731986 101,210 L101,210 C101,202.268014 107.268014,196 115,196 Z" id="Rectangle" fill="#2A8FBD"></path>
            <rect id="Rectangle" fill="#2A8FBD" x="97" y="166" width="34" height="57" rx="16.5"></rect>
            <circle id="Oval" fill="#556270" cx="114.5" cy="146.5" r="15.5"></circle>
        </g>
    </g>
</svg>