<?xml version="1.0" encoding="UTF-8"?>
<svg width="297px" height="328px" viewBox="0 0 297 328" version="1.1" xmlns="http://www.w3.org/2000/svg" xmlns:xlink="http://www.w3.org/1999/xlink">
    <!-- Generator: Sketch 52.6 (67491) - http://www.bohemiancoding.com/sketch -->
    <title>Group</title>
    <desc>Created with Sketch.</desc>
    <g id="Page-1" stroke="none" stroke-width="1" fill="none" fill-rule="evenodd">
        <g id="dreen_11-07" transform="translate(-350.000000, -236.000000)" fill="#FFFFFF">
            <g id="Group" transform="translate(350.000000, 236.000000)">
                <path d="M163.792,16.197 C212.503,16.197 255.704,39.768 282.629,76.12 C285.25,79.659 290.248,80.382 293.738,77.697 C297.139,75.08 297.805,70.222 295.25,66.775 C265.08,26.047 216.438,-0.172 161.702,0.511 C72.63,1.624 -0.731,76.861 0.301,165.934 C1.337,255.343 74.138,327.502 163.792,327.502 C209.495,327.502 250.812,308.743 280.48,278.513 C283.773,275.157 283.374,269.667 279.648,266.8 C276.512,264.388 272.062,264.678 269.292,267.502 C242.47,294.839 205.114,311.803 163.792,311.803 C85.803,311.803 21.928,251.399 16.385,174.824 L280.48,327.502 L139.74,196.806 L139.74,195.188821 C138.326591,192.406307 138.052383,190.572361 138.917378,189.686982 C144.25149,184.227165 139.156082,179.454527 139.74,176.885212 C140.465952,173.690926 140.465952,166.778059 139.74,156.146612 L139.74,138.359 C245.259881,51.7792873 297.096548,8.48943092 295.25,8.48943092 C269.606548,8.48943092 176.534881,59.1066206 16.035,160.341 C17.978,80.403 83.385,16.197 163.792,16.197 L249.991307,174.824" id="Fill-1"></path>
                <ellipse id="Oval" cx="156" cy="162.5" rx="46" ry="45.5"></ellipse>
            </g>
        </g>
    </g>
</svg>