<svg xmlns="http://www.w3.org/2000/svg" xmlns:xlink="http://www.w3.org/1999/xlink" width="37.5" height="37.5" viewBox="0 0 37.5 37.5">
  <defs>
    <linearGradient id="linear-gradient" x1="0.5" x2="0.5" y2="1" gradientUnits="objectBoundingBox">
      <stop offset="0" stop-color="#c640d1"/>
      <stop offset="1" stop-color="#d86d3b"/>
    </linearGradient>
  </defs>
  <g id="_2948233" data-name="2948233" transform="translate(0)">
    <path id="Path_795" data-name="Path 795" d="M181.369,176.021c.162-.014.325-.021.49-.021a5.859,5.859,0,0,1,0,11.719c-.165,0-.328-.007-.484-.02a5.859,5.859,0,0,1-.006-11.677Z" transform="translate(-163.109 -163.109)" fill="url(#linear-gradient)"/>
    <path id="Path_796" data-name="Path 796" d="M1.2,15.85a4.074,4.074,0,0,1,2.9-1.2H5.3a13.928,13.928,0,0,1,1.041-2.512l-.845-.845a4.1,4.1,0,0,1,5.8-5.8l.845.845A13.938,13.938,0,0,1,14.648,5.3V4.1A4.114,4.114,0,0,1,17.933.082,4.159,4.159,0,0,1,18.75,0a4.1,4.1,0,0,1,4.1,4.1V5.3a13.928,13.928,0,0,1,2.512,1.041l.845-.845a4.1,4.1,0,0,1,5.8,5.8l-.845.845A13.935,13.935,0,0,1,32.2,14.648H33.4a4.1,4.1,0,0,1,0,8.2H32.2a13.928,13.928,0,0,1-1.041,2.512l.845.845a4.1,4.1,0,0,1-5.8,5.8l-.845-.845A13.933,13.933,0,0,1,22.852,32.2V33.4a4.106,4.106,0,0,1-4.1,4.1,4.159,4.159,0,0,1-.817-.082h0a4.1,4.1,0,0,1-3.282-4.02V32.2a13.928,13.928,0,0,1-2.512-1.041l-.845.845a4.1,4.1,0,0,1-5.8-5.8l.845-.845A13.935,13.935,0,0,1,5.3,22.851H4.1a4.1,4.1,0,0,1-2.9-7Zm11.526,8.47a8.173,8.173,0,0,0,5.34,2.6c.218.019.449.029.682.029a8.2,8.2,0,0,0,0-16.406c-.233,0-.464.01-.688.029A8.2,8.2,0,0,0,12.728,24.32Z" fill="url(#linear-gradient)"/>
  </g>
</svg>
