<svg xmlns="http://www.w3.org/2000/svg" width="34.248" height="25.806" viewBox="0 0 34.248 25.806">
  <g id="logout" transform="translate(0.25 -0.082)">
    <path id="Path_22" data-name="Path 22" d="M150.195,220.725h16.679a.863.863,0,1,0,0-1.725H150.195a.863.863,0,1,0,0,1.725Zm0,0" transform="translate(-134.055 -206.878)" fill="#020202" stroke="#020202" stroke-width="0.5"/>
    <path id="Path_23" data-name="Path 23" d="M150.2,144.581a.856.856,0,0,0,.61-.253l4.6-4.6a.863.863,0,0,0,0-1.221l-4.6-4.6a.863.863,0,0,0-1.221,1.22l3.991,3.991-3.991,3.991a.862.862,0,0,0,.611,1.472Zm0,0" transform="translate(-121.986 -126.132)" fill="#020202" stroke="#020202" stroke-width="0.5"/>
    <path id="Path_24" data-name="Path 24" d="M12.653,25.638A12.653,12.653,0,1,1,24.429,8.356a.863.863,0,1,1-1.606.631,10.927,10.927,0,1,0,0,8,.863.863,0,1,1,1.606.631,12.588,12.588,0,0,1-11.776,8.023Zm0,0" transform="translate(0 0)" fill="#020202" stroke="#020202" stroke-width="0.5"/>
  </g>
</svg>
