<svg xmlns="http://www.w3.org/2000/svg" width="24.299" height="22.707" viewBox="0 0 24.299 22.707">
  <g id="map" transform="translate(0.15 -16.827)">
    <path id="Path_36" data-name="Path 36" d="M23.433,21.49c-8.143-1.618-7.616-1.534-7.8-1.5-.059.01-.782.155-2.466.492a5.2,5.2,0,0,0-9.837.006L.84,19.99a.7.7,0,0,0-.84.69v16.5a.7.7,0,0,0,.566.69c8.074,1.6,7.545,1.5,7.6,1.508.17.021-.355.108,7.585-1.48l7.409,1.473a.7.7,0,0,0,.84-.69V22.18a.7.7,0,0,0-.566-.69ZM8.25,18.383a3.8,3.8,0,0,1,3.8,3.8c0,1.766-2.826,6.25-3.8,7.734-.969-1.482-3.8-5.967-3.8-7.734A3.8,3.8,0,0,1,8.25,18.383ZM1.406,21.537l1.65.328c-.006.1-.01.209-.01.315,0,1.172.767,3.065,2.345,5.785.921,1.588,1.83,2.952,2.155,3.432v6.426L1.406,36.6ZM8.953,31.4c.325-.48,1.234-1.844,2.155-3.432,1.578-2.72,2.345-4.612,2.345-5.785,0-.108,0-.215-.01-.322l1.6-.321V36.6L8.953,37.822Zm13.64,6.426-6.14-1.22V21.537l6.14,1.22Z" fill="#020202" stroke="#020202" stroke-width="0.3"/>
    <path id="Path_37" data-name="Path 37" d="M131.2,85.383a2.2,2.2,0,1,0-2.2-2.2A2.206,2.206,0,0,0,131.2,85.383Zm0-3a.8.8,0,1,1-.8.8A.8.8,0,0,1,131.2,82.383Z" transform="translate(-122.953 -61)" fill="#020202" stroke="#020202" stroke-width="0.3"/>
  </g>
</svg>
