<svg id="tick_3_" data-name="tick (3)" xmlns="http://www.w3.org/2000/svg" width="33.228" height="33.228" viewBox="0 0 33.228 33.228">
  <g id="Group_9" data-name="Group 9">
    <circle id="Ellipse_15" data-name="Ellipse 15" cx="15.327" cy="15.327" r="15.327" transform="translate(1.287 1.287)" fill="#19df3a"/>
    <path id="Path_20" data-name="Path 20" d="M16.614,33.228A16.614,16.614,0,1,1,33.228,16.614,16.633,16.633,0,0,1,16.614,33.228Zm0-30.654a14.04,14.04,0,1,0,14.04,14.04A14.056,14.056,0,0,0,16.614,2.574Z" fill="#19df3a"/>
  </g>
  <path id="Path_21" data-name="Path 21" d="M138.1,174.049a1.285,1.285,0,0,1-.918-.385l-4.749-4.826a1.287,1.287,0,0,1,1.835-1.8l3.794,3.856,7.849-8.644a1.287,1.287,0,1,1,1.9,1.731l-8.764,9.652a1.287,1.287,0,0,1-.927.422Z" transform="translate(-123.496 -151.323)" fill="#fff"/>
</svg>
