<svg xmlns="http://www.w3.org/2000/svg" width="29.459" height="29.459" viewBox="0 0 29.459 29.459">
  <g id="no-video" transform="translate(0.141 0.141)">
    <path id="Path_38" data-name="Path 38" d="M154.1,86.353a.912.912,0,0,1,.912.912v2.918a.912.912,0,0,0,1.381.782l5-3V99.331l-5-3a.906.906,0,0,0-.419-.119l4.984,4.984.879.527a.912.912,0,0,0,1.381-.782V86.353a.912.912,0,0,0-1.381-.782l-5,3V87.265A2.738,2.738,0,0,0,154.1,84.53H144.3l1.823,1.823Z" transform="translate(-134.957 -79.059)" fill="#020202" stroke="#020202" stroke-width="0.2"/>
    <path id="Path_39" data-name="Path 39" d="M29.176,27.887,1.289,0,0,1.289,4.181,5.471H2.735A2.738,2.738,0,0,0,0,8.206V20.97a2.738,2.738,0,0,0,2.735,2.735H19.147a2.711,2.711,0,0,0,2.172-1.1l6.568,6.568Zm-10.029-6H2.735a.912.912,0,0,1-.912-.912V8.206a.912.912,0,0,1,.912-.912H6L20,21.284A.907.907,0,0,1,19.147,21.882Z" fill="#020202" stroke="#020202" stroke-width="0.2"/>
  </g>
</svg>
